<svg width="1106" height="334" viewBox="0 0 1106 334" fill="none" xmlns="http://www.w3.org/2000/svg">
<path d="M400.476 57.8121L382.494 16.7441H387.425L401.636 52.3015L400.476 57.8121ZM400.476 57.8121L399.954 53.7517L415.383 16.5701H418.864L403.144 51.8375C403.144 51.8375 403.028 52.0889 402.796 52.5916C402.603 53.0556 402.351 53.6357 402.042 54.3317C401.771 55.0278 401.52 55.7045 401.288 56.3619C401.095 57.0193 400.998 57.5027 400.998 57.8121H400.476ZM413.759 20.5725C414.185 19.4123 414.107 18.5229 413.527 17.9042C412.947 17.2855 412.29 16.9761 411.555 16.9761H411.033V16.3961H422.692V16.9761C422.692 16.9761 422.595 16.9761 422.402 16.9761C422.247 16.9761 422.17 16.9761 422.17 16.9761C421.319 16.9761 420.41 17.2661 419.444 17.8462C418.477 18.3876 417.684 19.3157 417.065 20.6305L413.759 20.5725ZM388.991 20.5725L384.176 20.6305C383.596 19.3157 382.823 18.3876 381.856 17.8462C380.889 17.2661 379.961 16.9761 379.072 16.9761C379.072 16.9761 378.994 16.9761 378.84 16.9761C378.685 16.9761 378.608 16.9761 378.608 16.9761V16.3961H391.659V16.9761H391.137C390.402 16.9761 389.745 17.2855 389.165 17.9042C388.623 18.5229 388.565 19.4123 388.991 20.5725ZM478.507 16.3961V57H474.737V16.3961H478.507ZM474.911 52.7656V57H470.27V56.4199C470.27 56.4199 470.386 56.4199 470.618 56.4199C470.889 56.4199 471.024 56.4199 471.024 56.4199C472.03 56.4199 472.881 56.0719 473.577 55.3758C474.311 54.6411 474.698 53.771 474.737 52.7656H474.911ZM474.911 20.6305H474.737C474.698 19.625 474.311 18.7743 473.577 18.0782C472.881 17.3435 472.03 16.9761 471.024 16.9761C471.024 16.9761 470.889 16.9761 470.618 16.9761C470.386 16.9761 470.27 16.9761 470.27 16.9761V16.3961H474.911V20.6305ZM478.333 52.7656H478.507C478.546 53.771 478.913 54.6411 479.609 55.3758C480.344 56.0719 481.214 56.4199 482.219 56.4199C482.219 56.4199 482.335 56.4199 482.567 56.4199C482.799 56.4199 482.935 56.4199 482.973 56.4199V57H478.333V52.7656ZM478.333 20.6305V16.3961H482.973V16.9761C482.935 16.9761 482.799 16.9761 482.567 16.9761C482.335 16.9761 482.219 16.9761 482.219 16.9761C481.214 16.9761 480.344 17.3435 479.609 18.0782C478.913 18.7743 478.546 19.625 478.507 20.6305H478.333ZM542.771 16.3961V57H539.001V16.3961H542.771ZM558.432 55.2018V57H542.597V55.2018H558.432ZM561.971 47.6031L558.607 57H548.978L551.066 55.2018C553.115 55.2018 554.778 54.8925 556.054 54.2737C557.369 53.6163 558.432 52.7076 559.245 51.5475C560.057 50.3874 560.772 49.0726 561.391 47.6031H561.971ZM539.175 52.7656V57H534.534V56.4199C534.534 56.4199 534.65 56.4199 534.882 56.4199C535.153 56.4199 535.288 56.4199 535.288 56.4199C536.294 56.4199 537.144 56.0719 537.84 55.3758C538.575 54.6411 538.962 53.771 539.001 52.7656H539.175ZM539.175 20.6305H539.001C538.962 19.625 538.575 18.7743 537.84 18.0782C537.144 17.3435 536.294 16.9761 535.288 16.9761C535.288 16.9761 535.153 16.9761 534.882 16.9761C534.65 16.9761 534.534 16.9761 534.534 16.9761V16.3961H539.175V20.6305ZM542.597 20.6305V16.3961H547.237V16.9761C547.199 16.9761 547.063 16.9761 546.831 16.9761C546.599 16.9761 546.483 16.9761 546.483 16.9761C545.478 16.9761 544.608 17.3435 543.873 18.0782C543.177 18.7743 542.81 19.625 542.771 20.6305H542.597ZM619.157 16.3961V57H615.387V16.3961H619.157ZM634.819 55.2018V57H618.983V55.2018H634.819ZM638.357 47.6031L634.993 57H625.364L627.452 55.2018C629.501 55.2018 631.164 54.8925 632.44 54.2737C633.755 53.6163 634.819 52.7076 635.631 51.5475C636.443 50.3874 637.158 49.0726 637.777 47.6031H638.357ZM615.561 52.7656V57H610.92V56.4199C610.92 56.4199 611.036 56.4199 611.268 56.4199C611.539 56.4199 611.674 56.4199 611.674 56.4199C612.68 56.4199 613.531 56.0719 614.227 55.3758C614.961 54.6411 615.348 53.771 615.387 52.7656H615.561ZM615.561 20.6305H615.387C615.348 19.625 614.961 18.7743 614.227 18.0782C613.531 17.3435 612.68 16.9761 611.674 16.9761C611.674 16.9761 611.539 16.9761 611.268 16.9761C611.036 16.9761 610.92 16.9761 610.92 16.9761V16.3961H615.561V20.6305ZM618.983 20.6305V16.3961H623.624V16.9761C623.585 16.9761 623.45 16.9761 623.218 16.9761C622.986 16.9761 622.87 16.9761 622.87 16.9761C621.864 16.9761 620.994 17.3435 620.259 18.0782C619.563 18.7743 619.196 19.625 619.157 20.6305H618.983ZM705.5 15.584L722.67 56.652H717.739L704.34 21.0945L705.5 15.584ZM693.029 52.7656C692.758 53.539 692.719 54.1964 692.913 54.7378C693.106 55.2792 693.415 55.7045 693.841 56.0139C694.305 56.2846 694.769 56.4199 695.233 56.4199H695.755V57H684.096V56.4199C684.096 56.4199 684.192 56.4199 684.386 56.4199C684.54 56.4199 684.618 56.4199 684.618 56.4199C685.507 56.4199 686.416 56.1493 687.344 55.6079C688.311 55.0278 689.104 54.0804 689.722 52.7656H693.029ZM705.5 15.584L706.022 19.6444L691.463 56.826H687.982L702.832 21.5586C702.832 21.5586 702.928 21.3265 703.122 20.8625C703.354 20.3598 703.605 19.7604 703.876 19.0643C704.185 18.3682 704.436 17.6915 704.63 17.0341C704.862 16.3767 704.978 15.8933 704.978 15.584H705.5ZM713.679 41.1645V42.9046H695.523V41.1645H713.679ZM716.289 52.7656H721.045C721.625 54.0804 722.399 55.0278 723.366 55.6079C724.332 56.1493 725.26 56.4199 726.15 56.4199C726.15 56.4199 726.227 56.4199 726.382 56.4199C726.537 56.4199 726.614 56.4199 726.614 56.4199V57H713.563V56.4199H714.085C714.819 56.4199 715.477 56.1106 716.057 55.4919C716.637 54.8345 716.714 53.9257 716.289 52.7656Z" fill="black"/>
<path d="M266.76 178.31C302.039 174.849 333.415 200.714 336.739 235.999C340.063 271.284 314.07 302.552 278.765 305.737C243.655 308.902 212.592 283.09 209.286 248.004C205.98 212.912 231.676 181.754 266.76 178.31ZM299.302 189.831C291.54 183.895 280.55 180.518 270.82 181.298C219.193 185.295 210.939 259.737 243.59 290.566C244.005 278.624 245.468 273.444 249.569 262.444C245.746 249.357 240.621 245.263 247.729 230.876C253.32 244.673 250.855 246.8 250.921 260.428L256.325 251.275C256.635 230.301 247.661 229.246 259.414 208.397C270.162 226.728 261.279 233.582 256.527 251.454C266.347 241.165 272.615 231.736 277.549 218.257C272.785 201.97 280.106 202.361 286.982 191.481C289.412 209.253 290.475 207.958 279.022 221.176C277.174 223.312 271.065 236.38 269.738 239.449L273.356 236.467C285.259 225.675 292.232 222.611 308.427 225.535C304.848 228.884 296.718 237.144 293.077 238.719C274.088 246.954 273.705 233.929 257.566 254.899C265.644 251.308 269.802 249.898 278.271 254.199C281.551 252.266 283.657 251.217 287.679 252.213C291.025 253.049 293.9 255.18 295.665 258.142C298.415 262.845 296.43 268.629 291.684 271.162C289.373 272.394 286.505 272.361 284.079 271.53C281.909 270.781 278.736 268.692 277.785 266.344C276.608 263.439 276.805 258.96 276.857 255.838C276.851 255.801 275.361 255.03 275.153 254.938C271.15 253.121 265.937 253.837 261.956 255.427C256.181 257.732 252.92 261.738 250.66 267.344C247.054 276.29 246.286 283.718 246.687 293.195C256.046 300.44 266.883 304.147 278.747 302.344C328.769 294.757 335.219 217.3 299.302 189.831ZM285.109 233.78C282.737 234.684 272.894 238.361 271.637 239.903L272.354 239.826C275.794 238.623 283.15 236.302 285.723 234.219L285.7 233.746L285.109 233.78Z" fill="black"/>
<path d="M52.542 103.064C70.1487 103.039 85.0649 102.473 102.615 105.235C163.066 114.752 201.169 168.705 189.856 228.954C185.156 253.985 172.774 273.083 151.682 287.772C139.241 296.394 118.927 303.619 103.774 305.486C97.7715 306.258 91.7405 306.79 85.6953 307.078C77.717 307.39 2.66346 307.782 1.04785 306.533C3.60367 305.198 8.57664 306.313 12.2969 304.733C23.0997 300.147 20.8596 284.895 21.1455 274.571C21.4853 257.482 21.6023 240.392 21.4951 223.297C21.5147 194.586 21.957 165.294 20.4795 136.652C20.1017 129.328 19.0881 119.198 16.1797 112.423C12.0031 102.691 3.9983 105.538 0 104.118L0.320312 103.032L52.542 103.064ZM138.457 126.618C110.371 101.052 73.8578 104.7 38.5176 105.396L39.3809 304.849C77.5524 305.309 113.684 310.06 142.987 281.741C143.975 280.786 144.94 279.8 145.879 278.796C182.592 237.165 179.967 164.403 138.457 126.618Z" fill="#010101"/>
<path d="M533.229 256.208C523.142 205.545 575.436 155.037 621.31 189.717C631.682 198.981 636.158 207.498 638.791 221.116C608.519 227.086 577.714 232.266 547.307 238.138C549.395 293.827 595.47 325.116 640.297 282.041C642.697 279.738 651.913 266.782 653.419 266.433C653.161 269.066 647.253 277.503 645.343 280.099C598.863 341.764 501.098 349.81 439.534 306.906C389.664 272.151 399.088 187.794 462.845 178.867C464.044 178.738 465.247 178.652 466.452 178.609C480.3 178.038 497.156 182.616 507.944 191.719C513.247 196.195 513.592 206.629 504.4 206.452C504.014 206.905 501.75 205.006 501.741 204.982C496.677 191.628 488.808 181.819 473.28 180.4C442.379 177.576 425.36 201.914 422.923 230.227C417.726 290.594 476.328 323.224 529.243 326.353C553.356 327.767 576.507 324.308 598.716 314.358C606.523 310.862 614.941 306.287 621.413 300.667C579.354 319.531 542.451 302.485 533.229 256.208ZM623.244 221.741C621.462 200.953 609.78 177.294 584.938 180.73C556.136 184.308 547.882 211.044 547.202 236.222C558.009 234.385 568.786 232.407 579.544 230.294C593.982 227.459 608.8 224.368 623.244 221.741Z" fill="#010101"/>
<path d="M1044.27 178.927C1054.78 179.204 1064.89 180.892 1073.28 187.673C1087.09 198.847 1085.96 216.157 1085.91 231.985L1085.78 268.184C1085.75 276.769 1083.81 294.324 1091.03 300.226C1094.23 302.847 1101.26 301.218 1105.16 300.661C1099.28 303.226 1092.9 305.542 1086.45 305.927C1070.23 306.889 1071.76 290.087 1071.86 279.133C1056.46 296.026 1035.42 314.187 1010.45 304.598C1003.5 301.929 999.309 297.036 996.499 290.252C985.57 251.793 1041.37 243.601 1062.89 224.84C1077.98 211.669 1071.22 188.432 1053.22 182.054C1042.97 178.428 1028.6 182.135 1021.32 189.95C1015.25 194.628 1015.55 204.107 1013.38 208.766C1008.25 219.782 994.705 207.309 1007.07 195.075C1018.13 184.141 1028.71 180.045 1044.27 178.927ZM1071.44 218.907C1051.31 243.215 1008.59 243.466 1009.93 279.947C1010.13 285.384 1012.64 290.822 1016.64 294.594C1037.25 309.815 1059.8 292.634 1071.86 275.331C1072.25 267.255 1072.81 224.45 1071.44 218.907Z" fill="#010101"/>
<path d="M690.91 105.467C695.325 104.838 745.105 104.93 746.146 105.638C742.705 108.277 731.892 105.074 734.623 118.983C740.078 146.814 753.145 176.44 763.67 202.601C775.022 231.471 786.62 260.243 798.461 288.911C802.717 275.441 808.895 261.694 813.757 248.199C828.091 208.424 845.854 169.345 857.512 128.704C858.914 123.811 859.863 115.706 857.763 111.142C855.553 106.329 848.903 106.895 844.415 105.203C855.694 105.256 870.426 104.766 881.374 105.47L881.87 106.069L880.535 106.449C872.906 108.059 870.224 110.769 866.666 117.742C862.564 125.783 859.692 134.647 856.533 143.125L844.476 174.536C826.376 221.619 808.767 270.689 790.214 317.237C775.096 277.302 758.178 237.233 742.46 197.506C733.355 174.49 724.005 151.308 714.698 128.421C711.165 121.192 707.889 110.612 699.489 107.802C696.286 106.732 694.015 106.891 690.91 105.467Z" fill="#010101"/>
<path d="M385.866 306.19C371.875 305.713 357.416 306.57 343.458 306.356L343.18 305.443C345.805 304.182 351.303 305.56 354.494 303.545C356.62 302.204 358.282 300.643 358.74 298.09C360.685 287.227 360.283 275.771 360.29 264.756L360.283 223.676L360.293 170.112C360.291 156.805 361.637 139.677 357.674 127.09C357.2 125.584 352.963 125.337 351.584 125.31L350.997 124.557C354.224 122.542 369.713 116.477 374.443 114.422C374.975 154.59 373.995 195.437 374.416 235.653C374.637 254.671 373.897 273.812 374.95 292.805C375.417 301.219 378.118 303.729 385.972 305.003C386.067 306.013 386.221 305.652 385.866 306.19Z" fill="#010101"/>
<path d="M952.578 148.439C953.662 151.235 953.074 176.256 953.08 181.029C957.011 181.076 978.761 180.519 980.597 181.56L980.885 182.864L980.157 183.647C974.101 184.446 959.712 184.047 953.025 184.015L953.038 250.287C953.038 262.227 952.468 276.175 954.164 287.907C954.715 291.752 956.662 295.2 959.344 297.992C968.229 307.244 979.575 297.11 983.506 297.128C983.188 298.518 981.798 299.247 980.438 300.416C975.326 303.851 969.472 306.399 963.183 306.484C933.089 306.876 938.973 268.424 939.04 247.458L938.936 184.133C932.538 184.106 926.133 183.997 919.734 183.805C938.25 176.335 944.557 166.097 952.578 148.439Z" fill="#010101"/>
<path d="M896.393 180.497C899.436 184.518 895.285 280.737 898.285 295.279C900 303.601 904.617 303.233 912.234 303.919L912.644 304.592C909.203 305.235 881.906 304.868 876.548 304.862C873.787 304.911 870.254 305.15 867.621 304.611C869.678 301.457 882.58 307.599 882.947 291.299C883.639 260.874 883.394 230.228 883.082 199.784C883.021 193.49 879.573 192.492 874.516 190.912C874.859 190.128 894.152 181.534 896.393 180.497Z" fill="#010101"/>
<path d="M886.682 133.101C891.886 131.388 897.495 134.194 899.252 139.386C901.003 144.578 898.242 150.213 893.062 152.007C887.827 153.82 882.12 151.021 880.344 145.771C878.575 140.522 881.416 134.833 886.682 133.101Z" fill="#010101"/>
<path d="M385.972 305.003C388.222 304.837 389.922 304.397 391.786 305.511L391.398 306.35C389.576 306.858 387.669 306.772 385.866 306.191C386.221 305.652 386.068 306.013 385.972 305.003Z" fill="#151415"/>
</svg>
